HIERARCHY
ROOT Hips
{
	OFFSET 0.00 0.00 0.00
	CHANNELS 6 Xposition Yposition Zposition Xrotation Yrotation Zrotation
	JOINT LeftUpLeg
	{
		OFFSET 3.34807 0.00000 0.00000
		CHANNELS 3 Xrotation Yrotation Zrotation
		JOINT LeftLeg
		{
			OFFSET 0.00000 -16.98552 0.00000
			CHANNELS 3 Xrotation Yrotation Zrotation
			JOINT LeftFoot
			{
				OFFSET 0.00000 -16.83686 0.00000
				CHANNELS 3 Xrotation Yrotation Zrotation
				JOINT LeftToeBase
				{
					OFFSET 0.00000 -1.59599 5.95633
					CHANNELS 3 Xrotation Yrotation Zrotation
					End Site
					{
						OFFSET 0.00000 0.00000 2.95275
					}
				}
			}
		}
	}
	JOINT RightUpLeg
	{
		OFFSET -3.34807 0.00000 0.00000
		CHANNELS 3 Xrotation Yrotation Zrotation
		JOINT RightLeg
		{
			OFFSET 0.00000 -16.98552 0.00000
			CHANNELS 3 Xrotation Yrotation Zrotation
			JOINT RightFoot
			{
				OFFSET 0.00000 -16.83686 0.00000
				CHANNELS 3 Xrotation Yrotation Zrotation
				JOINT RightToeBase
				{
					OFFSET 0.00000 -1.59599 5.95633
					CHANNELS 3 Xrotation Yrotation Zrotation
					End Site
					{
						OFFSET 0.00000 0.00000 2.95275
					}
				}
			}
		}
	}
	JOINT Spine
	{
		OFFSET 0.00000 0.03937 0.00000
		CHANNELS 3 Xrotation Yrotation Zrotation
		JOINT Spine1
		{
			OFFSET 0.00000 7.93124 0.00000
			CHANNELS 3 Xrotation Yrotation Zrotation
			JOINT Neck
			{
				OFFSET 0.00000 8.48368 0.00000
				CHANNELS 3 Xrotation Yrotation Zrotation
				JOINT Head
				{
					OFFSET 0.00000 6.65077 0.00000
					CHANNELS 3 Xrotation Yrotation Zrotation
					End Site
					{
						OFFSET 0.00000 4.52755 0.00000
					}
				}
			}
			JOINT LeftShoulder
			{
				OFFSET 0.00000 8.48368 0.00000
				CHANNELS 3 Xrotation Yrotation Zrotation
				JOINT LeftArm
				{
					OFFSET 7.74502 -0.00003 0.00000
					CHANNELS 3 Xrotation Yrotation Zrotation
					JOINT LeftForeArm
					{
						OFFSET 12.49824 -0.00005 0.00000
						CHANNELS 3 Xrotation Yrotation Zrotation
						JOINT LeftHand
						{
							OFFSET 9.88337 -0.00004 0.00000
							CHANNELS 3 Xrotation Yrotation Zrotation
							JOINT LeftHandThumb
							{
								OFFSET 0.00000 0.00000 0.00000
								CHANNELS 3 Xrotation Yrotation Zrotation
								End Site
								{
									OFFSET 0.00000 0.00000 3.93700
								}
							}
							JOINT L_Wrist_End
							{
								OFFSET 3.93700 -0.00001 0.00000
								CHANNELS 3 Xrotation Yrotation Zrotation
							}
						}
					}
				}
			}
			JOINT RightShoulder
			{
				OFFSET 0.00000 8.48368 0.00000
				CHANNELS 3 Xrotation Yrotation Zrotation
				JOINT RightArm
				{
					OFFSET -7.74502 -0.00003 0.00000
					CHANNELS 3 Xrotation Yrotation Zrotation
					JOINT RightForeArm
					{
						OFFSET -12.49824 -0.00005 0.00000
						CHANNELS 3 Xrotation Yrotation Zrotation
						JOINT RightHand
						{
							OFFSET -9.88337 -0.00004 0.00000
							CHANNELS 3 Xrotation Yrotation Zrotation
							JOINT RightHandThumb
							{
								OFFSET 0.00000 0.00000 0.00000
								CHANNELS 3 Xrotation Yrotation Zrotation
								End Site
								{
									OFFSET 0.00000 0.00000 3.93700
								}
							}
							JOINT R_Wrist_End
							{
								OFFSET -5.39369 -0.00002 0.00000
								CHANNELS 3 Xrotation Yrotation Zrotation
							}
						}
					}
				}
			}
		}
	}
}
MOTION
Frames: 7
Frame Time: 0.033332
 -25.7484 31.9520 -7.0148 47.2637 -54.0128 32.4055 -55.6577 0.7801 7.0652 57.7687 -0.0000 0.0000 -31.1262 4.4160 -11.9933 3.5533 -0.0000 0.0000 -72.7407 -15.4956 -19.4322 50.9498 -0.0000 0.0000 15.2969 -7.1836 37.0042 -5.5342 0.0000 -0.0000 0.0063 -4.7633 -1.4523 36.7094 -8.8705 -2.5132 -10.0828 4.1655 4.5373 17.5299 -18.3666 -1.2428 -7.3671 11.9742 29.5947 17.2649 -45.2769 -55.4335 -0.0007 -73.5657 -0.0005 -1.4558 -31.6648 15.5719 -0.0000 0.0000 -0.0000 -0.0000 0.0000 -0.0000 22.7398 -19.4149 -9.7952 -21.9721 43.3457 91.4600 -0.0002 49.4897 0.0001 33.0035 -72.6204 -126.2690 -0.0000 0.0000 -0.0000 -0.0000 0.0000 -0.0000
 -25.3103 32.2796 -7.0436 47.3892 -54.0579 32.1917 -55.4227 1.6680 7.5225 55.4920 -0.0000 0.0000 -29.2577 3.3125 -12.3918 3.6221 0.0000 0.0000 -72.3365 -14.9976 -19.1832 54.5174 -0.0000 0.0000 13.9404 -7.6768 35.0309 -5.0927 0.0000 0.0000 -0.0655 -4.7256 -1.5393 36.4878 -8.9406 -2.6411 -10.1209 4.5419 4.6584 17.2286 -18.1132 -1.2228 -7.1120 12.1773 29.4881 17.2587 -44.9999 -55.5151 -0.0007 -72.3232 -0.0005 -1.2820 -31.2978 15.1928 -0.0000 0.0000 -0.0000 -0.0000 0.0000 -0.0000 22.6346 -19.5532 -9.8087 -21.7888 43.5596 91.7138 -0.0002 49.6569 0.0001 33.1145 -72.6696 -125.5391 -0.0000 0.0000 -0.0000 -0.0000 0.0000 -0.0000
 -24.9537 32.6280 -7.0621 47.3966 -54.4283 31.5953 -54.6646 1.7516 7.9125 53.0610 -0.0000 0.0000 -27.4422 2.9625 -12.0830 3.8815 0.0000 0.0000 -70.8718 -14.9210 -18.2645 57.2957 -0.0000 0.0000 14.0782 -9.5503 34.1345 -5.0659 0.0000 0.0000 0.1670 -4.7618 -1.3957 35.6833 -9.0710 -2.7802 -10.1336 5.0022 4.6889 17.3738 -17.3965 -0.9524 -7.0140 12.7679 29.3369 17.3848 -44.5754 -55.9468 -0.0006 -70.9631 -0.0004 -0.7430 -31.2700 15.1869 -0.0000 0.0000 -0.0000 -0.0000 0.0000 -0.0000 22.5362 -19.2672 -10.1765 -21.8336 44.0484 91.7719 -0.0002 48.9644 0.0001 34.5744 -72.3812 -124.2319 -0.0000 0.0000 -0.0000 -0.0000 0.0000 -0.0000
 -24.6367 32.9371 -7.0328 47.2297 -54.7326 31.0640 -53.6023 1.2526 7.7054 50.6267 0.0000 0.0000 -25.8745 3.3021 -11.3226 3.7670 0.0000 0.0000 -68.9586 -14.7927 -17.4054 59.4122 -0.0000 0.0000 13.7990 -11.1458 34.1579 -4.3854 -0.0000 -0.0000 0.1369 -4.6544 -1.1919 35.0263 -9.0026 -2.8892 -10.0214 5.0227 4.5566 17.1114 -16.8292 -0.5886 -0.2788 18.1607 26.1200 10.7145 -45.8733 -53.5433 -0.0006 -70.0425 -0.0004 -9.9298 -32.8196 26.0427 -0.0000 -0.0000 0.0000 -0.0000 -0.0000 0.0000 21.9020 -19.2653 -10.5979 -21.3000 44.0559 91.5941 -0.0002 48.2749 0.0001 37.5605 -71.7729 -122.5242 -0.0000 0.0000 -0.0000 -0.0000 0.0000 -0.0000
 -24.3653 33.1675 -6.9677 46.6403 -55.2962 30.3022 -52.2942 0.5473 7.2988 48.6860 -0.0000 0.0000 -24.8902 4.0589 -10.3497 3.7367 -0.0000 0.0000 -66.5076 -14.5887 -16.4668 61.2896 -0.0000 0.0000 12.8263 -11.3384 34.7924 -5.0499 -0.0000 0.0000 0.1137 -4.6056 -1.1685 34.4840 -8.8495 -2.8195 -9.7144 5.3190 4.6048 16.4744 -16.7068 -0.7591 10.0163 26.1802 19.4773 2.0877 -50.2470 -48.0818 -0.0005 -68.5534 -0.0004 -18.4006 -34.7817 35.0408 -0.0000 0.0000 -0.0000 -0.0000 0.0000 -0.0000 21.9808 -19.0737 -10.9354 -21.2103 43.7262 91.0301 -0.0002 47.8140 0.0001 38.7935 -71.3227 -122.1273 -0.0000 0.0000 -0.0000 -0.0000 0.0000 -0.0000
 -24.1014 33.2911 -6.8940 45.9981 -55.9110 29.6374 -51.2674 -0.3247 6.8044 47.5155 -0.0000 0.0000 -24.1346 4.6550 -9.3370 3.2998 0.0000 0.0000 -64.3426 -14.5250 -15.7755 63.4143 -0.0000 0.0000 11.7469 -10.2325 34.3038 -5.7711 0.0000 0.0000 0.4320 -4.7821 -1.2908 33.4819 -8.8291 -2.6175 -9.8043 5.4277 4.5005 16.4214 -16.2954 -0.8796 9.0060 26.5909 19.8222 3.7103 -50.2439 -49.3276 -0.0005 -67.8319 -0.0003 -22.3276 -36.2700 38.8686 -0.0000 0.0000 -0.0000 -0.0000 0.0000 -0.0000 21.6724 -18.8221 -11.3619 -20.6797 43.6642 90.1062 -0.0002 47.6059 0.0001 39.8628 -70.6732 -121.1686 -0.0000 0.0000 -0.0000 -0.0000 0.0000 -0.0000
 -23.8430 33.3412 -6.8078 45.3023 -56.7460 29.1555 -50.4119 -0.6225 6.4384 46.9182 -0.0000 0.0000 -23.7775 4.9248 -8.3500 3.4394 -0.0000 -0.0000 -62.4787 -14.8428 -15.3593 65.8412 -0.0000 0.0000 10.5453 -9.4578 34.1897 -6.6818 0.0000 -0.0000 0.6327 -4.7018 -1.3790 32.8352 -8.7494 -2.6807 -9.8712 5.2804 4.3318 16.1285 -15.9932 -0.8271 5.6734 25.0158 21.7205 7.7168 -48.9962 -51.6039 -0.0005 -67.6827 -0.0003 -24.5870 -37.8247 41.3583 -0.0000 0.0000 -0.0000 -0.0000 0.0000 -0.0000 21.4569 -18.7631 -11.5451 -20.4921 43.2567 89.4103 -0.0002 47.4969 0.0001 40.8949 -70.2638 -120.7432 -0.0000 0.0000 -0.0000 -0.0000 0.0000 -0.0000
